<svg id="Layer_1" data-name="Layer 1" xmlns="http://www.w3.org/2000/svg" viewBox="0 0 207 207"><defs><style>.cls-1{fill:none;stroke:#d8d8d8;stroke-linecap:round;stroke-linejoin:round;}.cls-2{fill:#fff;}</style></defs><title>01-Logo-aura</title><polygon class="cls-1" points="192.09 157.28 160.08 166.71 109.3 116.47 112.02 75.11 192.09 157.28"/><polygon class="cls-1" points="183.08 109.02 192.09 157.28 112.02 75.11 137.47 57.97 183.08 109.02"/><polygon class="cls-1" points="67.53 133.02 160.08 166.71 109.3 116.47 18.05 83.25 67.53 133.02"/><polygon class="cls-1" points="14.91 39.76 18.05 83.25 109.3 116.47 112.02 75.11 14.91 39.76"/><polygon class="cls-1" points="49.32 25.88 14.91 39.76 112.02 75.11 137.47 57.97 49.32 25.88"/><path class="cls-2" d="M50.6,76.65c.47-1.57,1.1-3,3-3s2.62,1.45,3,3L67.81,116c.41,1.4-1.16,2.91-2.79,2.91-1.8,0-2.73-1.51-3.14-2.91l-2.15-7H47.35l-2.21,7c-.41,1.4-1.34,2.91-3.14,2.91-1.63,0-3.2-1.51-2.79-2.91Zm3,10.81h-.12L49,103.21H58.1Z"/><path class="cls-2" d="M81.18,118.91a8.79,8.79,0,0,1-7.21-3c-1.92-2.15-2.21-4.24-2.21-6.92V76.59c0-1.86.81-2.91,2.91-2.91s2.91,1,2.91,2.91V109c0,3.26,1,4.07,3.6,4.07h9.88c2.62,0,3.6-.81,3.6-4.07V76.59c0-1.86.81-2.91,2.91-2.91s2.91,1,2.91,2.91V109c0,2.67-.29,4.77-2.21,6.92a8.79,8.79,0,0,1-7.21,3Z"/><path class="cls-2" d="M112.45,116c0,1.86-.81,2.91-2.91,2.91s-2.91-1-2.91-2.91V73.68h19.53c4.59,0,9.18,3.26,9.18,8.43v4c0,5.46-4.53,8.25-9.18,8.25h-5.35l13.08,18.72a5.84,5.84,0,0,1,1.45,3.08,2.79,2.79,0,0,1-3,2.73,3.07,3.07,0,0,1-2.56-1.63l-16-22.9h-1.34Zm0-27.44h12.9c1.63,0,4.19-.12,4.19-2.44v-4c0-2.33-2.38-2.62-4.13-2.62h-13Z"/><path class="cls-2" d="M150.59,76.65c.47-1.57,1.1-3,3-3s2.62,1.45,3,3L167.79,116c.41,1.4-1.16,2.91-2.79,2.91-1.8,0-2.73-1.51-3.14-2.91l-2.15-7H147.33l-2.21,7c-.41,1.4-1.34,2.91-3.14,2.91-1.63,0-3.2-1.51-2.79-2.91Zm3,10.81h-.12L149,103.21h9.13Z"/></svg>